<svg width="400" height="300" viewBox="0 0 400 300" fill="none" xmlns="http://www.w3.org/2000/svg">
  <!-- Pastel gradient background -->
  <rect width="400" height="300" fill="#F0F5FF"/>
  
  <!-- Face circle -->
  <circle cx="200" cy="130" r="50" fill="#E0E7FF"/>
  <circle cx="190" cy="125" r="6" fill="#8B9DFF"/>
  <circle cx="210" cy="125" r="6" fill="#8B9DFF"/>
  <path d="M 185 140 Q 200 148 215 140" stroke="#8B9DFF" stroke-width="3" fill="none" stroke-linecap="round"/>
  
  <!-- Neural network lines -->
  <path d="M 200 80 L 220 100 L 240 90" stroke="#B8C5FF" stroke-width="2" opacity="0.7"/>
  <path d="M 200 80 L 180 100 L 160 90" stroke="#B8C5FF" stroke-width="2" opacity="0.7"/>
  <path d="M 250 130 L 270 140 L 280 120" stroke="#B8C5FF" stroke-width="2" opacity="0.7"/>
  <path d="M 150 130 L 130 140 L 120 120" stroke="#B8C5FF" stroke-width="2" opacity="0.7"/>
  
  <!-- Nodes -->
  <circle cx="220" cy="100" r="5" fill="#9FA8FF"/>
  <circle cx="180" cy="100" r="5" fill="#9FA8FF"/>
  <circle cx="270" cy="140" r="5" fill="#9FA8FF"/>
  <circle cx="130" cy="140" r="5" fill="#9FA8FF"/>
  
  <!-- Scan lines -->
  <line x1="150" y1="100" x2="250" y2="100" stroke="#B8C5FF" stroke-width="1.5" opacity="0.5"/>
  <line x1="150" y1="130" x2="250" y2="130" stroke="#B8C5FF" stroke-width="1.5" opacity="0.5"/>
  <line x1="150" y1="160" x2="250" y2="160" stroke="#B8C5FF" stroke-width="1.5" opacity="0.5"/>
  
  <!-- Sparkles -->
  <circle cx="280" cy="90" r="4" fill="#C8D2FF"/>
  <circle cx="120" cy="100" r="3" fill="#C8D2FF"/>
  <circle cx="260" cy="170" r="5" fill="#C8D2FF"/>
  
  <!-- Text -->
  <text x="200" y="260" font-family="sans-serif" font-size="16" fill="#8B9DFF" text-anchor="middle" font-weight="600">AI 분석</text>
</svg>




